<?xml version="1.0" encoding="UTF-8" standalone="no"?>
<svg
   xmlns:svg="http://www.w3.org/2000/svg"
   xmlns="http://www.w3.org/2000/svg"
   width="480.0"
   height="360.0"

>
    <g transform="scale(12.286731847184718, -12.286731847184718)   translate(26.660163488909163,38.49059274750106)" stroke-width="0.08138860784441486"  fill="none">
       <!-- hidden lines -->
       <g  stroke="rgb(160,160,160)" fill="none" stroke-dasharray="0.08138860784441486,0.08138860784441486" >
			<path d="M1.328293596973537e-15,-61.684183619785024 L0.20929173489187614,-61.66710210210648 L0.4184984144918187,-61.645650539670996 L0.6275350180740156,-61.61983765030447 L0.8363165940308366,-61.58967392425794 L1.0447582943968263,-61.55517161994442 L1.25277540933055,-61.51634475895708 L1.460283401540337,-61.473209120371024 L1.667197940639872,-61.42578223433062 L1.8734349374197232,-61.374083374925405 L2.0789105780208392,-61.31813355235716 L2.2835413579961608,-61.25795550440144 L2.48724411624648,-61.193573687167 L2.6899360688167615,-61.12501426515704 L2.8915348425392025,-61.05230510063595 L3.0919585085093426,-60.97547574230624 L3.2911256153816346,-60.894557413300085 L3.4889552224709277,-60.80958299849037 L3.685366932646429,-60.7205870311264 L3.8802809250047665,-60.62760567879974 L4.073617987308866,-60.530676728745846 L4.265299548179479,-60.429839572487495 L4.455247709026268,-60.32513518982625 L4.6433852757054614,-60.21660613218842 L4.829635789891247,-60.104296505332336 L5.0139235601481005,-59.98825195142396 L5.196173692691481,-59.86851963048811 L5.376312121824359,-59.7451482012428 L5.554265640037196,-59.61818780132453 L5.729961927759179,-59.48769002691262 L5.903329582748596,-59.353707911760665 L6.074298149110408,-59.21629590564387 L6.242798145929218,-59.07550985223089 L6.408761095506057,-58.93140696638918 L6.572119551187418,-58.78404581093315 L6.7328071247752845,-58.633486272824406 L6.890758513507041,-58.47978953883402 L7.045909526594235,-58.323018070676426 L7.198197111309445,-58.16323557962525 L7.347559378610649,-58.000507000621326 L7.493935628292675,-57.834898465883406 L7.637266373655509,-57.66647727803227 L7.777493365679446,-57.495311882739266 L7.914559616697251,-57.321471840910235 L8.048409423553705,-57.14502780041627 L8.178988390243145,-56.96605146738271 L8.30624345001576,-56.78461557704806 L8.430122886943717,-56.600793864204704 L8.55057635693828,-56.41466103323337 L8.667554908209453,-56.22629272774363 L8.781011001159776,-56.03576549983259 L8.890898527704227,-55.84315677897446 L8.997172830008349,-55.64854484055355 L9.099790718637012,-55.45200877405347 L9.198710490106414,-55.25362845091549 L9.293891943832225,-55.053484492079114 L9.385296398466904,-54.85165823521808 L9.472886707619669,-54.64823170168504 L9.556627274952612,-54.44328756317846 L9.636484068646926,-54.23690910814514 L9.712424635233269,-54.02918020793219 L9.784418112780743,-53.82018528270203 L9.852435243439041,-53.61000926712435 L9.916448385328719,-53.39873757585909 L9.976431523774739,-53.18645606884424 L10.032360281878734,-52.97325101640269 L10.084211930425662,-52.75920906418239 L10.131965397120876,-52.544417197943865 L10.175601275153824,-52.32896270820959 L10.215101831084876,-52.11293315478945 L10.250451012052137,-51.89641633119687 L10.281634452295261,-51.679500228969815 L10.30863947899362,-51.46227300191145 L10.331455117416516,-51.24482293026475 L10.350072095383238,-51.027238384835854 L10.364482847031251,-50.80960779108044 L10.374681515890929,-50.592019593168054 L10.380663957265599,-50.37456221803875 L10.38242773991593,-50.157324039466744 L10.379972147047978,-49.940393342145676 L10.373298176604486,-49.72385828581008 L10.36240854085933,-49.50780686940766 L10.34730766531525,-49.292326895336835 L10.328001686905363,-49.07750593376425 L10.304498451499121,-48.86343128703658 L10.27680751071379,-48.65018995420129 L10.244940118032712,-48.43786859565049 L10.20890922423194,-48.2265534979026 L10.168729472117082,-48.01633053853581 L10.124417190572553,-47.807285151287815 L10.075990387925547,-47.59950229133588 L10.023468744627563,-47.39306640077144 L9.966873605256325,-47.18806137428313 L9.906227969841453,-46.98457052506241 L9.841556484517337,-46.782676550945354 L9.77288543150705,-46.58246150080464 L9.700242718441366,-46.38400674120521 L9.623657867017208,-46.18739292333724 L9.543162001000159,-45.99269995023984 L9.458787833575897,-45.80000694432876 L9.370569654055675,-45.60939221524139 L9.27854331394131,-45.42093322801209 L9.182746212355266,-45.23470657159065 L9.083217280841811,-45.05078792771689 L8.979996967545393,-44.869252040163914 L8.873127220772696,-44.690172684362565 L8.762651471945006,-44.513622637419374 L8.648614617947874,-44.339673648540256 L8.531063002885203,-44.16839640987193 L8.410044399245194,-43.99986052777293 L8.285607988485815,-43.83413449452586 L8.157804341047646,-43.67128566050242 L8.026685395802275,-43.51138020679248 L7.892304438944551,-43.3544831183084 L7.7547160823373,-43.2006581573754 L7.613976241317279,-43.04996783781879 L7.470142111971429,-42.90247339955869 L7.323272147892611,-42.75823478372228 L7.173426036424319,-42.61731060828407 L7.020664674403989,-42.479758144243746 L6.865050143414769,-42.345633292351465 L6.706645684555832,-42.21499056039007 L6.545515672741452,-42.08788304102329 L6.381725590539302,-41.964362390219165 L6.2153420015586125,-41.84447880625724 L6.046432523399007,-41.728281009328185 L5.875065800170981,-41.61581622173415 L5.701311474599214,-41.50713014869776 L5.525240159720106,-41.4022669597878 " />
			<path d="M-5.525240159720066,-60.42559171414305 L-5.370251221161346,-60.51366742173918 L-5.213610844840703,-60.59879105701599 L-5.055367200168068,-60.680936443100194 L-4.895568949583918,-60.76007831897756 L-4.734265233594803,-60.836192347261075 L-4.571505655661852,-60.90925512167505 L-4.407340266946932,-60.979244174252976 L-4.241819550921102,-61.046137982246734 L-4.074994407840159,-61.1099159747452 L-3.90691613909198,-61.17055853900013 L-3.737636431420548,-61.2280470264574 L-3.5672073410314376,-61.28236375849173 L-3.395681277583718,-61.3334920318431 L-3.2231109880731355,-61.38141612375335 L-3.049549540611582,-61.4261212968011 L-2.8750503081077983,-61.4675938034338 L-2.6996669518543617,-61.50582089019528 L-2.5234534050259776,-61.540790801647674 L-2.346463856094174,-61.57249278398636 L-2.1687527321634827,-61.600917088347 L-1.9903746822342354,-61.62605497380338 L-1.81138456039713,-61.64789871005544 L-1.6318374089647198,-61.66644157980649 L-1.451788441545033,-61.681677880828786 L-1.271293026062498,-61.69360292771718 L-1.0904066677314357,-61.70221305332986 L-0.9091849919873165,-61.70750560991608 L-0.7276837273810561,-61.70947896993046 L-0.5459586884415963,-61.708132526533326 L-0.3640657585120475,-61.7034666937775 L-0.18206087256467507,-61.69548290648082 L-1.5547096377328844e-14,-61.684183619785024 " />
			<path d="M3.7945973267294884,-46.28304046263737 L3.7027482399862657,-46.20542482445906 L3.609165390994571,-46.13001388042721 L3.5138925986694867,-46.056842940705906 L3.41697447321941,-45.98594626660721 L3.318456395257933,-45.917357054548795 L3.2183844945549676,-45.851107420510154 L3.1168056284371084,-45.787228384994705 L3.0137673598473307,-45.7257498585049 " />
			<path d="M3.0137673598473094,-45.725749858504884 L2.8951935616349096,-45.658961244639926 L2.77487580707924,-45.59533802705787 L2.652886571096677,-45.53491853000597 L2.5292993354415,-45.47773914793 L2.404188544443248,-45.423834323551674 L2.2776295601642245,-45.37323652712155 L2.1496986170042134,-45.32597623686022 L2.020472775779728,-45.282081920599374 L1.8900298773054562,-45.241580018633805 L1.758448495505864,-45.204494927794805 L1.625807890085204,-45.17084898675438 L1.492187958784429,-45.14066246256932 L1.3576691892537838,-45.113953538473034 L1.2223326105700534,-45.0907383029227 L1.0862597444276756,-45.07103073990814 L0.94953255603312,-45.05484272052839 L0.8122334047321202,-45.04218399584103 L0.6744449943994746,-45.03306219098845 L0.5362503236213256,-45.02748280060483 L0.39773263569991757,-45.025449185506304 L0.2589753685109466,-45.026962570666555 L0.12006210424369534,-45.032022044478964 L-0.01892348094573926,-45.040624559305684 L-0.15789766733784738,-45.052764933313455 L-0.29677674207932503,-45.068435853594934 L-0.4354770496085725,-45.08762788057371 L-0.5739150420466697,-45.110329453690376 L-0.7120073295235065,-45.13652689836615 L-0.8496707304087083,-45.166204434239944 L-0.9868223214171437,-45.19934418467387 L-1.12337948755882,-45.23592618752143 L-1.2592599719030568,-45.275928407151994 L-1.3943819251269813,-45.31932674772425 L-1.5286639548185113,-45.3660950677006 L-1.6620251745040844,-45.416205195593875 L-1.7943852523716586,-45.469626946936756 L-1.9256644596595902,-45.52632814246382 L-2.0557837186822554,-45.586274627495065 L-2.1846646504634903,-45.64943029250945 L-2.3122296219491587,-45.71575709489592 L-2.4384017927704003,-45.78521508186883 L-2.5631051615293914,-45.85776241453404 L-2.686264611579755,-45.933355393091055 L-2.807805956274004,-46.0119484831562 L-2.9276559836508205,-46.09349434319083 L-3.0457425005351952,-46.17794385301802 L-3.161994376024895,-46.265246143410835 L-3.2763415843370614,-46.35534862673399 L-3.3887152469891277,-46.44819702862068 L-3.4990476742886316,-46.54373542066543 L-3.6072724061069636,-46.64190625411328 L-3.7133242519124603,-46.74265039452501 L-3.817139330038742,-46.8459071573975 L-3.918655106164641,-46.95161434471781 L-4.017810430982543,-47.05970828242896 L-4.114545577032425,-47.17012385878475 L-4.208802274679472,-47.28279456357069 L-4.300523747213509,-47.39765252816725 L-4.389654745049162,-47.51462856643137 L-4.4761415790061605,-47.63365221637162 L-4.55993215264968,-47.75465178259185 L-4.640975993671288,-47.87755437947784 L-4.719224284291579,-48.00228597510085 L-4.794629890666174,-48.128771435811686 L-4.867147391277393,-48.25693457149841 L-4.9367331042944675,-48.386698181480426 L-5.003345113885857,-48.51798410101125 L-5.066943295467764,-48.65071324836204 L-5.127489339873696,-48.78480567245751 L-5.184946776430464,-48.92018060103542 L-5.239280994926759,-49.05675648930079 L-5.290459266461044,-49.194451069045414 L-5.338450763156226,-49.33318139820321 L-5.383226576729214,-49.47286391081134 L-5.424759735904187,-49.61341446734728 L-5.463025222659084,-49.7547484054113 L-5.497999987295521,-49.89678059072391 L-5.529662962323071,-50.03942546840762 L-5.5579950751495355,-50.18259711452194 L-5.582979259569551,-50.32620928782079 L-5.6046004660446425,-50.47017548170098 L-5.622845670768498,-50.61440897631055 L-5.637703883512026,-50.75882289078559 L-5.649166154243452,-50.90333023558401 L-5.65722557851949,-51.04784396488477 L-5.661877301644317,-51.19227702902107 L-5.663118521593862,-51.33654242691576 L-5.66094849070364,-51.48055325848759 L-5.6553685161191165,-51.624222776996525 L-5.646381959008332,-51.76746444129677 L-5.633994232537262,-51.91019196796589 L-5.618212798609124,-52.052319383278764 L-5.599047163369612,-52.19376107499488 L-5.576508871480744,-52.334431843928 L-5.550611499166793,-52.47424695526694 L-5.521370646036477,-52.61312218961665 L-5.4888039256863355,-52.750973893728826 L-5.452930955090958,-52.88771903089154 L-5.413773342786454,-53.02327523094738 L-5.371354675854282,-53.157560839910204 L-5.325700505713263,-53.29049496915044 L-5.276838332728369,-53.42199754411936 L-5.224797589645535,-53.551989352583 L-5.169609623862463,-53.68039209233665 L-5.111307678546132,-53.80712841837117 L-5.049926872608349,-53.932121989462736 L-4.985504179551436,-54.05529751415793 L-4.918078405196767,-54.1765807961265 L-4.847690164309606,-54.29589877885447 L-4.774381856134276,-54.41317958965063 L-4.698197638854446,-54.528352582939974 L-4.619183402993896,-54.641348382817924 L-4.537386743773774,-54.75209892483983 L-4.452856932443021,-54.8605374970204 L-4.36564488659921,-54.96659878001854 L-4.275803139517689,-55.07021888648326 L-4.1833858085074995,-55.17133539953703 L-4.088448562313135,-55.269887410373364 L-3.9910485875817687,-55.36581555494605 L-3.891244554416165,-55.45906204972777 L-3.7890965810339874,-55.54957072651678 L-3.6846661975548383,-55.63728706627052 L-3.578016308936829,-55.72215823194584 L-3.4692111570849633,-55.80413310032609 L-3.358316282154231,-55.88316229281579 L-3.245398483070662,-55.95919820518447 L-3.130525777294158,-56.03219503624169 L-3.013767359847352,-56.10210881542592 " />
			<path d="M-3.013767359847308,-56.10210881542595 L-2.9093179350741782,-56.161158046393886 L-2.8035062611612984,-56.21775033282877 L-2.696381883007159,-56.2718591761508 L-2.587994960166417,-56.3234592406191 L-2.478396243363367,-56.3725263651949 L-2.367637050728583,-56.419037574854606 L-2.255769243769903,-56.462971091347505 L-2.142845203088965,-56.504306343393196 " />
			<path d="M0.6607008494562141,-59.71810521091882 L0.8243289330989518,-59.70475056982469 L0.987890518967999,-59.68797934828422 L1.1513191363140796,-59.66779836205221 L1.3145483684257764,-59.64421581259765 L1.4775118796210047,-59.61724128377071 L1.6401434422055527,-59.58688573790789 L1.8023769633877489,-59.55316151137697 L1.9641465121382957,-59.51608230956356 L2.1253863459843605,-59.4756632013013 L2.28603093772705,-59.43192061274795 L2.4460150020713933,-59.38487232070983 L2.6052735221580066,-59.33453744541747 L2.7637417759856806,-59.28093644275513 L2.9213553627141344,-59.22409109594773 L3.0780502288362444,-59.16402450670814 L3.2337626942091267,-59.10076108584878 L3.388429477933484,-59.03432654336119 L3.5419877240706943,-58.96474787796754 L3.694375027187212,-58.89205336614851 L3.845529457715872,-58.816272550651824 L3.9953895871238063,-58.73743622848621 L4.1438945128767495,-58.6555764384056 L4.290983883189575,-58.57072644788875 L4.436597921553005,-58.482920739619445 L4.5806774510265456,-58.3921949974729 L4.723163918287735,-58.29858609201396 L4.863999417427985,-58.202132065513084 L5.003126713485294,-58.102872116486076 L5.140489265704298,-58.00084658376404 L5.276031250514206,-57.89609693009977 L5.409697584215257,-57.78866572531756 L5.541433945364512,-57.67859662901286 L5.671186796851858,-57.56593437280935 L5.798903407657285,-57.450724742180086 L5.924531874280527,-57.33301455784052 L6.048021141834445,-57.212851656720765 L6.169321024793524,-57.090284872524826 L6.288382227389052,-56.965364015884816 L6.405156363642721,-56.83813985411812 L6.519595977030486,-56.70866409059574 L6.631654559768702,-56.576989343730304 L6.741286571714689,-56.44316912559214 L6.848447458874064,-56.30725782016217 L6.9530936715072915,-56.169310661230526 L7.055182681828125,-56.02938370994974 L7.154673001286717,-55.887533832051744 L7.251524197430392,-55.743818674737845 L7.345696910335231,-55.598296643251174 L7.437152868601784,-55.45102687714101 L7.525854904908401,-55.30206922622874 L7.61176697111588,-55.151484226285106 L7.694854152917285,-54.99933307442876 L7.775082684026968,-54.845677604255975 L7.852419959903047,-54.690580260711734 L7.92683455099777,-54.53410407471239 L7.998296215530338,-54.37631263753012 L8.066775911777045,-54.217270074949745 L8.13224580987371,-54.057041021208235 L8.194679303125628,-53.89569059272765 L8.254051018820405,-53.73328436165207 L8.31033682853934,-53.56988832919939 L8.3635138579631,-53.40556889883866 L8.413560496167758,-53.240392849304 L8.460456404407374,-53.07442730745603 L8.504182524379587,-52.907739721001725 L8.54472108597082,-52.74039783108404 L8.582055614477989,-52.572469644752104 L8.616170937303748,-52.40402340732348 L8.64705319012257,-52.23512757464956 L8.674689822515157,-52.06585078529535 L8.699069603068871,-51.896261832645116 L8.720182623942133,-51.726429636944935 L8.738020304890943,-51.55642321729388 L8.752575396755836,-51.38631166359493 L8.763841984407916,-51.21616410847706 L8.771815489152756,-51.046049699200104 L8.776492670591136,-50.87603756955355 L8.77787162793594,-50.70619681176089 L8.775951800784632,-50.536596448400786 L8.770733969346992,-50.3673054043566 L8.76222025412805,-50.198392478805616 L8.750414115066318,-50.02992631725933 L8.73532035012768,-49.86197538366622 L8.716945093355525,-49.69460793258823 L8.695295812377902,-49.527891981462446 L8.670381305372697,-49.3618952829591 L8.642211697492094,-49.19668529744711 L8.610798436747752,-49.03232916557853 L8.57615428935839,-48.868893681002824 L8.53829333456164,-48.70644526322222 L8.497230958892306,-48.545049930599106 L8.452983849929339,-48.384773273526434 L8.405569989514076,-48.22568042777205 L8.355008646442496,-48.06783604800781 L8.301320368634451,-47.911304281534164 L8.2445269747831,-47.756148742210975 L8.184651545487847,-47.60243248460511 L8.121718413874518,-47.450217978365316 L8.055753155706459,-47.299567082834834 L7.986782578990649,-47.150541021911984 L7.914834713083055,-47.00320035916908 L7.839938797297602,-46.85760497323959 L7.762125269023446,-46.713814033483736 L7.681425751355338,-46.57188597594232 L7.597873040242138,-46.43187847958854 L7.511501091158671,-46.293848442887494 L7.422345005306369,-46.157851960672915 L7.3304410153482795,-46.023944301350404 L7.235826470684273,-45.89217988443664 L7.138539822272394,-45.762612258443475 L7.038620607002555,-45.63529407911606 L6.9361094316289,-45.510277088033746 L6.8310479562674065,-45.387612091582554 L6.723478877465373,-45.26734894030766 L6.613445910849721,-45.149536508654315 L6.500993773361147,-45.034222675105504 L6.3861681650813455,-44.921454302724314 L6.26901575066068,-44.81127722010899 L6.149584140353877,-44.70373620276837 L6.0279218706713955,-44.59887495492532 L5.904078384654408,-44.496736091755494 L5.778104011781348,-44.397361122068745 L5.650049947514212,-44.30079043144006 L5.519968232492946,-44.2070632657971 L5.387911731386344,-44.11621771547075 L5.253934111408071,-44.02829069971541 L5.118089820506508,-43.94331795170515 L4.980434065237386,-43.8613340040119 " />
			<path d="M-3.659032366324929,-58.73411517559874 L-3.537859196179021,-58.80297436517389 L-3.4153949019647007,-58.86952557093576 L-3.2916771434024588,-58.933748327328864 L-3.1667439656730325,-58.99562288483299 L-3.0406337877179053,-59.05513021603646 L-2.913385390424872,-59.11225202148739 L-2.785037904702297,-59.166970735321044 L-2.6556307994457398,-59.21926953066161 L-2.5252038694006385,-59.26913232479678 L-2.39379722292479,-59.31654378412336 L-2.261451269654397,-59.36148932886269 L-2.128206708077457,-59.40395513754407 L-1.9941045130183306,-59.443928151255136 L-1.8591859230373298,-59.48139607765769 L-1.7234924277492056,-59.516347394767756 L-1.58706575506443,-59.548771354498776 L-1.4499478583571968,-59.57865798596684 L-1.3121809035640966,-59.605998098556896 L-1.1738072562174144,-59.630783284748965 L-1.0348694684170554,-59.65300592270364 L-0.8954102657450993,-59.6726591786059 L-0.7554725341269983,-59.68973700876661 L-0.6150993066434784,-59.70423416148106 L-0.47433375029717695,-59.71614617864395 L-0.3332191527381041,-59.72546939712033 L-0.1917989089520007,-59.73220094987205 L-0.05011650791568911,-59.736338766839474 L0.09178448077647738,-59.73788157557798 L0.2338604203109651,-59.73682890164932 L0.3760676200740667,-59.73318106876748 L0.5183623490874671,-59.72693919869917 L0.6607008494562017,-59.71810521091882 " />
			<path d="M-3.0137673598473085,-56.10210881542594 L-1.3620152362067777,-57.061596947525686 " />
			<path d="M3.0137673598473094,-45.725749858504884 L4.66551948348784,-46.68523799060463 " />

       </g>

       <!-- solid lines -->
       <g  stroke="rgb(0,0,0)" fill="none">
			<path d="M0.6607008494562137,-62.06797887262492 L0.8699925843480885,-62.05089735494637 L1.079199263948031,-62.02944579251089 L1.288235867530228,-62.003632903144364 L1.497017443487049,-61.97346917709784 L1.7054591438530387,-61.938966872784306 L1.9134762587867624,-61.90014001179698 L2.1209842509965493,-61.85700437321092 L2.3278987900960844,-61.809577487170515 L2.5341357868759355,-61.7578786277653 L2.7396114274770516,-61.701928805197056 L2.944242207452373,-61.641750757241326 L3.1479449657026923,-61.5773689400069 L3.350636918272974,-61.50880951799694 L3.552235691995415,-61.436100353475844 L3.752659357965555,-61.35927099514613 L3.951826464837847,-61.27835266613998 L4.14965607192714,-61.19337825133027 L4.346067782102642,-61.1043822839663 L4.540981774460979,-61.011400931639635 L4.734318836765079,-60.914471981585734 L4.926000397635692,-60.813634825327384 L5.115948558482481,-60.708930442666144 L5.304086125161675,-60.60040138502832 L5.4903366393474595,-60.48809175817223 L5.674624409604313,-60.37204720426386 L5.856874542147693,-60.252314883328005 L6.037012971280571,-60.12894345408269 L6.214966489493408,-60.00198305416443 L6.390662777215391,-59.87148527975252 L6.5640304322048095,-59.737503164600554 L6.7349989985666205,-59.600091158483764 L6.90349899538543,-59.45930510507078 L7.069461944962271,-59.31520221922908 L7.2328204006436305,-59.16784106377304 L7.393507974231497,-59.0172815256643 L7.551459362963254,-58.863584791673915 L7.706610376050447,-58.70681332351632 L7.858897960765658,-58.54703083246515 L8.008260228066861,-58.38430225346123 L8.154636477748888,-58.2186937187233 L8.297967223111721,-58.050272530872164 L8.438194215135658,-57.87910713557916 L8.575260466153464,-57.70526709375013 L8.709110273009918,-57.52882305325617 L8.839689239699357,-57.34984672022261 L8.966944299471972,-57.16841082988796 L9.09082373639993,-56.9845891170446 L9.211277206394492,-56.798456286073275 L9.328255757665666,-56.61008798058353 L9.441711850615988,-56.41956075267249 L9.55159937716044,-56.226952031814356 L9.657873679464561,-56.032340093393444 L9.760491568093224,-55.83580402689336 L9.859411339562627,-55.63742370375539 L9.954592793288437,-55.43727974491901 L10.045997247923117,-55.23545348805798 L10.13358755707588,-55.03202695452494 L10.217328124408825,-54.827082816018354 L10.297184918103138,-54.62070436098504 L10.373125484689481,-54.41297546077209 L10.445118962236956,-54.203980535541916 L10.513136092895254,-53.99380451996424 L10.577149234784931,-53.78253282869898 L10.637132373230951,-53.57025132168413 L10.693061131334947,-53.35704626924259 L10.744912779881874,-53.14300431702229 L10.792666246577088,-52.92821245078376 L10.836302124610036,-52.71275796104948 L10.875802680541089,-52.49672840762935 L10.91115186150835,-52.28021158403676 L10.942335301751474,-52.06329548180971 L10.969340328449832,-51.846068254751344 L10.992155966872728,-51.62861818310465 L11.01077294483945,-51.41103363767575 L11.025183696487463,-51.193403043920334 L11.035382365347141,-50.97581484600795 L11.04136480672181,-50.75835747087864 L11.043128589372142,-50.54111929230663 L11.04067299650419,-50.32418859498557 L11.033999026060698,-50.10765353864998 L11.023109390315541,-49.891602122247555 L11.008008514771463,-49.67612214817673 L10.988702536361576,-49.461301186604146 L10.965199300955334,-49.24722653987648 L10.937508360170002,-49.033985207041184 L10.905640967488925,-48.82166384849039 L10.869610073688152,-48.610348750742496 L10.829430321573295,-48.40012579137571 L10.785118040028765,-48.19108040412771 L10.73669123738176,-47.98329754417578 L10.684169594083775,-47.776861653611334 L10.627574454712537,-47.571856627123026 L10.566928819297665,-47.3683657779023 L10.50225733397355,-47.16647180378525 L10.433586280963262,-46.96625675364454 L10.360943567897579,-46.767801994045115 L10.28435871647342,-46.571188176177145 L10.203862850456371,-46.376495203079735 L10.11948868303211,-46.183802197168646 L10.031270503511887,-45.99318746808129 L9.939244163397522,-45.80472848085199 L9.843447061811478,-45.618501824430545 L9.743918130298024,-45.434583180556785 L9.640697817001605,-45.25304729300381 L9.533828070228909,-45.07396793720246 L9.423352321401218,-44.89741789025927 L9.309315467404087,-44.72346890138015 L9.191763852341415,-44.55219166271183 L9.070745248701407,-44.38365578061283 L8.946308837942027,-44.21792974736576 L8.818505190503858,-44.05508091334231 L8.687386245258487,-43.89517545963238 L8.553005288400763,-43.7382783711483 L8.415416931793512,-43.58445341021529 L8.274677090773492,-43.43376309065869 L8.130842961427641,-43.286268652398576 L7.983972997348824,-43.142030036562176 L7.834126885880531,-43.00110586112397 L7.681365523860201,-42.86355339708364 L7.525750992870982,-42.72942854519137 L7.367346534012045,-42.598785813229966 L7.206216522197664,-42.471678293863185 L7.0424264399955145,-42.34815764305907 L6.876042851014825,-42.22827405909713 L6.707133372855219,-42.11207626216808 L6.535766649627194,-41.99961147457404 L6.362012324055426,-41.89092540153766 L6.185941009176318,-41.7860622126277 " />
			<path d="M6.185941009176279,-41.78606221262767 L5.968555712453545,-41.66361642054191 L5.747973162434819,-41.54697385497481 L5.524326229800119,-41.43620477704632 L5.297749631098963,-41.33137590990705 L5.068379847602166,-41.23255039854678 L4.836355043090624,-41.139787771758215 L4.6018149806306035,-41.05314390627912 L4.364900938385713,-40.97267099313423 L4.125755624516215,-40.89841750619736 L3.884523091216963,-40.83042817299252 L3.6413486479457524,-40.76874394775174 L3.396378773894332,-40.713401986745794 L3.1497610297548153,-40.66443562590261 L2.901643968834643,-40.621874360727 L2.652177047573618,-40.58574382853364 L2.401510535516933,-40.556065793004095 L2.1497954247984317,-40.53285813107726 L1.8971833391885817,-40.51613482218089 L1.6438264427619753,-40.505905939810916 L1.3898773482393953,-40.502177645463604 L1.1354890250596132,-40.504952184924065 L0.8808147072363215,-40.51422788691348 L0.6260078010556902,-40.5299991640958 L0.37122179267015776,-40.55225651644338 L0.11661015564411636,-40.58098653695942 L-0.13767374149283595,-40.61617191975385 L-0.39147672762934915,-40.65779147046774 L-0.6446459213368843,-40.70582011904 L-0.897028822959753,-40.76022893480862 L-1.1484734064752176,-40.82098514393747 L-1.3988282110682912,-40.88805214915799 L-1.6479424323660585,-40.96138955181404 L-1.8956660132765881,-41.04095317619651 L-2.141849734377725,-41.12669509615315 L-2.3863453038012765,-41.21856366395748 L-2.6290054465584958,-41.316503541419436 L-2.869683993253037,-41.42045573321905 L-3.1082359681279232,-41.53035762244299 L-3.34451767639352,-41.6461430083027 L-3.5783867907839126,-41.76774214601123 L-3.809702437289521,-41.895081788794904 L-4.038325280014341,-42.02808523201445 L-4.264117605106669,-42.16667235936898 L-4.486943403712795,-42.31075969115509 L-4.706668453903626,-42.46026043455189 L-4.923160401524978,-42.615084535901744 L-5.136288839922763,-42.77513873495525 L-5.34592538849507,-42.9403266210477 L-5.551943770023856,-43.11054869117329 L-5.754219886739612,-43.285702409921996 L-5.952631895073219,-43.46568227124306 L-6.147060279049965,-43.6503798619979 L-6.337387922281481,-43.839683927264126 L-6.523500178512297,-44.03348043735137 L-6.70528494067845,-44.23165265648847 L-6.8826327084365655,-44.43408121314075 L-7.05543665412282,-44.64064417191498 L-7.2235926871018865,-44.85121710700868 L-7.386999516467251,-45.06567317715957 L-7.5455587120550796,-45.28388320205002 L-7.699174763734867,-45.50571574012044 L-7.8477551389411495,-45.73103716774476 L-7.991210338411683,-45.95971175972027 L-8.12945395009844,-46.19160177102347 L-8.262402701219008,-46.42656751978247 L-8.389976508416977,-46.66446747141617 L-8.512098526001191,-46.90515832388934 L-8.628695192234687,-47.148495094032455 L-8.739696273645563,-47.39433120487415 L-8.845034907332971,-47.64251857393364 L-8.944647641242845,-47.89290770242015 L-9.038474472389034,-48.14534776528531 L-9.126458882996868,-48.3996867020746 L-9.20854787454735,-48.655771308522844 L-9.284691999701465,-48.913447328838735 L-9.354845392085442,-49.17255954862276 L-9.41896579391891,-49.43295188836255 L-9.477014581469417,-49.69446749744935 L-9.528956788317936,-49.95694884865894 L-9.574761126421297,-50.220237833040166 L-9.614400004958966,-50.484175855153836 L-9.647849546952703,-50.74860392860472 L-9.67508960364917,-51.013362771808964 L-9.696103766656782,-51.278292903939395 L-9.710879377829519,-51.5432347409908 L-9.719407536891701,-51.80802869190734 L-9.721683106799201,-52.072515254714276 L-9.717704716833795,-52.33653511259596 L-9.707474763428834,-52.59992922986234 L-9.69099940872573,-52.86253894774612 L-9.6682885768621,-53.12420607997285 L-9.639355947993847,-53.38477300804645 L-9.604218950054744,-53.64408277619266 L-9.562898748258485,-53.901979185903386 L-9.515420232349575,-54.158306890024775 L-9.461812001610664,-54.41291148633257 L-9.402106347635403,-54.665639610538236 L-9.336339234877208,-54.916339028669874 L-9.26455027898562,-55.16485872877224 L-9.186782722943306,-55.41104901187075 L-9.103083411018101,-55.654761582144516 L-9.013502760545798,-55.895849636254205 L-8.9180947315606,-56.134167951770884 L-8.816916794291638,-56.36957297465258 L-8.71002989454503,-56.60192290571587 L-8.59749841699243,-56.8310777860504 L-8.479390146388086,-57.05689958132492 L-8.355776226737863,-57.27925226493397 L-8.226731118444732,-57.49800189993525 L-8.092332553456627,-57.71301671972821 L-7.952661488443606,-57.92416720742533 L-7.807802056032596,-58.13132617386824 L-7.657841514129039,-58.33436883424173 L-7.502870193355992,-58.53317288323945 L-7.342981442642339,-58.72761856873605 L-7.178271572992884,-58.917588763921366 L-7.008839799474202,-59.10296903785327 L-6.834788181451202,-59.283647724386555 L-6.656221561110364,-59.459515989436476 L-6.473247500306757,-59.63046789653629 L-6.2859762157727666,-59.79640047064947 L-6.094520512727659,-59.957213760198 L-5.898995716927976,-60.112810897269426 L-5.699519605199555,-60.26309815596655 L-5.496212334493212,-60.40798500886433 L-5.289196369506669,-60.547384181540245 L-5.078596408916409,-60.681211705145145 L-4.8645393102639325,-60.809386966982906 " />
			<path d="M-4.864539310263853,-60.809386966982956 L-4.709550371705133,-60.897462674579074 L-4.552909995384491,-60.98258630985588 L-4.394666350711855,-61.06473169594009 L-4.234868100127706,-61.14387357181746 L-4.0735643841385905,-61.21998760010097 L-3.9108048062056393,-61.29305037451495 L-3.746639417490719,-61.36303942709287 L-3.5811187014648893,-61.42993323508663 L-3.4142935583839464,-61.493711227585095 L-3.2462152896357677,-61.55435379184003 L-3.0769355819643356,-61.611842279297306 L-2.9065064915752252,-61.66615901133162 L-2.7349804281275056,-61.717287284682996 L-2.562410138616923,-61.76521137659324 L-2.3888486911553697,-61.809916549640995 L-2.214349458651586,-61.851389056273696 L-2.0389661023981493,-61.88961614303518 L-1.8627525555697653,-61.92458605448757 L-1.6857630066379619,-61.956288036826265 L-1.5080518827072704,-61.9847123411869 L-1.329673832778023,-62.00985022664327 L-1.1506837109409176,-62.031693962895346 L-0.9711365595085075,-62.050236832646384 L-0.7910875920888207,-62.06547313366869 L-0.6105921766062856,-62.077398180557076 L-0.42970581827522336,-62.086008306169745 L-0.24848414253110418,-62.091300862755986 L-0.06698287792484381,-62.09327422277035 L0.11474216101461598,-62.09192777937322 L0.29663509094416485,-62.08726194661739 L0.47863997689153726,-62.079278159320715 L0.6607008494561968,-62.06797887262492 " />
			<path d="M5.525240159720067,-41.40226695978778 L5.307854862997333,-41.27982116770202 L5.087272312978607,-41.16317860213492 L4.8636253803439065,-41.052409524206425 L4.63704878164275,-40.94758065706716 L4.407678998145954,-40.84875514570688 L4.175654193634411,-40.75599251891832 L3.941114131174391,-40.66934865343922 L3.704200088929501,-40.58887574029434 L3.465054775060002,-40.514622253357466 L3.2238222417607507,-40.446632920152624 L2.98064779848954,-40.38494869491184 L2.7356779244381197,-40.32960673390589 L2.489060180298603,-40.28064037306272 L2.240943119378431,-40.2380791078871 L1.9914761981174056,-40.201948575693734 L1.7408096860607207,-40.172270540164206 L1.4890945753422193,-40.149062878237366 L1.2364824897323694,-40.132339569340985 L0.983125593305763,-40.12211068697101 L0.729176498783183,-40.11838239262371 L0.4747881756034009,-40.121156932084176 L0.22011385778010917,-40.130432634073586 L-0.034693048400522127,-40.1462039112559 L-0.28947905678605457,-40.16846126360348 L-0.544090693812096,-40.197191284119526 L-0.7983745909490483,-40.23237666691396 L-1.0521775770855615,-40.27399621762785 L-1.3053467707930966,-40.322024866200096 L-1.5577296724159653,-40.37643368196872 L-1.8091742559314299,-40.437189891097574 L-2.0595290605245036,-40.5042568963181 L-2.308643281822271,-40.57759429897414 L-2.5563668627328004,-40.657157923356614 L-2.8025505838339373,-40.74289984331325 L-3.047046153257489,-40.83476841111759 L-3.289706296014708,-40.93270828857954 L-3.5303848427092492,-41.036660480379155 L-3.7689368175841356,-41.1465623696031 L-4.005218525849733,-41.26234775546281 L-4.239087640240125,-41.38394689317134 L-4.470403286745734,-41.51128653595501 L-4.699026129470553,-41.64428997917455 L-4.924818454562882,-41.782877106529085 L-5.147644253169007,-41.926964438315196 L-5.367369303359839,-42.076465181711995 L-5.583861250981191,-42.231289283061855 L-5.796989689378975,-42.39134348211535 L-6.0066262379512825,-42.5565313682078 L-6.212644619480068,-42.726753438333404 L-6.414920736195825,-42.90190715708211 L-6.6133327445294325,-43.081887018403165 L-6.807761128506177,-43.266584609158 L-6.998088771737694,-43.45588867442423 L-7.184201027968509,-43.64968518451147 L-7.365985790134662,-43.847857403648575 L-7.543333557892779,-44.050285960300855 L-7.7161375035790325,-44.25684891907508 L-7.884293536558099,-44.467421854168784 L-8.047700365923463,-44.68187792431967 L-8.206259561511292,-44.900087949210125 L-8.359875613191079,-45.12192048728055 L-8.508455988397362,-45.34724191490486 L-8.651911187867896,-45.575916506880375 L-8.790154799554653,-45.807806518183575 L-8.92310355067522,-46.04277226694258 L-9.05067735787319,-46.28067221857627 L-9.172799375457403,-46.52136307104944 L-9.2893960416909,-46.76469984119257 L-9.400397123101776,-47.01053595203425 L-9.505735756789184,-47.25872332109375 L-9.605348490699058,-47.50911244958026 L-9.699175321845246,-47.76155251244541 L-9.78715973245308,-48.0158914492347 L-9.869248724003562,-48.27197605568295 L-9.945392849157678,-48.52965207599884 L-10.015546241541655,-48.78876429578286 L-10.079666643375122,-49.04915663552266 L-10.13771543092563,-49.31067224460946 L-10.189657637774149,-49.57315359581904 L-10.23546197587751,-49.83644258020027 L-10.275100854415179,-50.10038060231394 L-10.308550396408915,-50.36480867576482 L-10.335790453105382,-50.62956751896907 L-10.356804616112994,-50.8944976510995 L-10.371580227285731,-51.1594394881509 L-10.380108386347914,-51.42423343906744 L-10.382383956255413,-51.68872000187438 L-10.378405566290008,-51.952739859756065 L-10.368175612885047,-52.216133977022444 L-10.351700258181943,-52.47874369490622 L-10.328989426318312,-52.740410827132955 L-10.30005679745006,-53.000977755206556 L-10.264919799510956,-53.26028752335277 L-10.223599597714697,-53.51818393306349 L-10.176121081805787,-53.77451163718488 L-10.122512851066876,-54.02911623349267 L-10.062807197091615,-54.28184435769834 L-9.99704008433342,-54.53254377582998 L-9.925251128441833,-54.78106347593234 L-9.847483572399518,-55.027253759030856 L-9.763784260474313,-55.27096632930462 L-9.67420361000201,-55.51205438341431 L-9.578795581016813,-55.75037269893099 L-9.47761764374785,-55.98577772181268 L-9.370730744001243,-56.21812765287597 L-9.258199266448642,-56.447282533210505 L-9.140090995844298,-56.673104328485024 L-9.016477076194075,-56.89545701209408 L-8.887431967900945,-57.11420664709535 L-8.75303340291284,-57.32922146688831 L-8.613362337899819,-57.54037195458543 L-8.468502905488808,-57.74753092102834 L-8.318542363585252,-57.950573581401834 L-8.163571042812205,-58.149377630399556 L-8.003682292098551,-58.34382331589615 L-7.838972422449096,-58.53379351108147 L-7.669540648930415,-58.71917378501337 L-7.4954890309074145,-58.89985247154666 L-7.316922410566577,-59.07572073659658 L-7.13394834976297,-59.24667264369639 L-6.946677065228979,-59.41260521780958 L-6.755221362183871,-59.5734185073581 L-6.559696566384188,-59.72901564442953 L-6.360220454655767,-59.87930290312666 L-6.156913183949424,-60.024189756024434 L-5.949897218962882,-60.16358892870035 L-5.7392972583726225,-60.29741645230525 L-5.525240159720146,-60.42559171414301 " />
			<path d="M8.842043871234744e-16,-56.788613491230656 L0.10650145582090342,-56.77999600314951 L0.21296524222590207,-56.769303695496546 L0.31935370312271383,-56.756540350126016 L0.4256292090615821,-56.74171048141532 L0.5317541705447604,-56.724819334668254 L0.6376910513218657,-56.70587288425981 L0.743402381666399,-56.68487783152298 L0.8488507716287308,-56.66184160237853 L0.9539989242608793,-56.63677234470849 L1.0588096488083867,-56.60967892547421 L1.163245873864633,-56.58057092758017 L1.2672706604829478,-56.549458646484496 L1.370847215241859,-56.51635308655747 L1.4739389032588774,-56.48126595718932 L1.5765092611481988,-56.44420966864861 L1.678522009917759,-56.40519732769275 L1.7799410678010585,-56.36424273293214 L1.8807305630192321,-56.321360369949645 L1.9808548464688513,-56.27656540617705 L2.0802785043309555,-56.229873685530364 L2.1789663705968763,-56.18130172280585 L2.2768835395064024,-56.13086669783875 L2.3739953778939005,-56.07858644942683 L2.4702675374380147,-56.024479469020804 L2.66015692372074,-55.9108625018231 L2.846283067669336,-55.79017652668111 L3.028382662341967,-55.66259227433887 L3.2061980970324417,-55.52829023432137 L3.3794778217041697,-55.3874603996016 L3.5479767028502884,-55.24030199782331 L3.7114563702764936,-55.087023209459794 L3.869685554316043,-54.92784087330734 L4.022440412999856,-54.76298017973006 L4.169504848718871,-54.59267435208999 L4.310670813930703,-54.417164316813185 L4.445738605478111,-54.236698362558435 L4.574517147102923,-54.051531788971 L4.69682425975576,-53.86192654551797 L4.812486919319136,-53.668150860916455 L4.921341501379368,-53.47047886367862 L5.023234012701011,-53.2691901943105 L5.118020309076363,-53.064569609713146 L5.205566299241848,-52.85690658034582 L5.285748134572807,-52.64649488072099 L5.358452384288352,-52.433632173810544 L5.423576195918405,-52.21861958995114 L5.4810274408059305,-52.001761300844365 L5.5307248444385175,-51.783364089254334 L5.57259810142494,-51.56373691501158 L5.606587974954033,-51.34319047793702 L5.632646380595194,-51.12203677830449 L5.650736454321943,-50.900588675463524 L5.660832604662339,-50.67915944524683 L5.6628780528041816,-50.56854981089016 L5.662920548902443,-50.4580623367886 L5.660960077926315,-50.347736102207136 L5.65699733329164,-50.23761012938057 L5.651033716615647,-50.12772336971139 L5.64307133722121,-50.01811468999275 L5.633113011390783,-49.90882285866128 L5.621162261370275,-49.79988653208481 L5.607223314123246,-49.69134424088962 L5.591301099835836,-49.58323437633223 L5.573401250172959,-49.47559517672046 L5.553530096286393,-49.36846471388859 L5.531694666575465,-49.26188087973145 L5.50790268420111,-49.15588137280202 L5.482162564354203,-49.0505036849776 L5.454483411279117,-48.94578508819891 L5.4248750150535665,-48.84176262128711 L5.393347848125867,-48.738473076843206 L5.359913061610846,-48.63595298823453 L5.324582481345711,-48.53423861667297 L5.287368603707265,-48.43336593838944 L5.248284591191961,-48.33337063190909 L5.2073442677603365,-48.23428806543191 L5.164562113947502,-48.13615328432303 L5.119953261741401,-48.0390009987172 L5.073533489230639,-47.94286557124191 L5.025319215023804,-47.84778100486334 L4.975327492442216,-47.75378093085958 L4.923576003488202,-47.66089859692526 L4.870083052590997,-47.56916685541194 L4.81486756013248,-47.47861815170824 L4.757949055755075,-47.38928451276395 L4.699347671454139,-47.30119753576218 L4.639084134457303,-47.21438837694343 L4.577179759893276,-47.12888774058572 L4.513656443252725,-47.04472586814448 L4.448536652643862,-46.96193252755624 L4.381843420845508,-46.880537002709715 L4.31360033716043,-46.80056808308816 L4.243831539071837,-46.72205405358653 L4.172561703705992,-46.64502268450722 L4.099816039103942,-46.569501221737674 L4.025620275305467,-46.49551637711362 L3.9500006552484064,-46.42309431897106 L3.8729839254865635,-46.35226066289063 L3.794597326729507,-46.28304046263739 " />
			<path d="M-2.1428452030889633,-56.504306343393196 L-2.015090518092587,-56.547522814391 L-1.8861505876251168,-56.587425691733756 L-1.7561012521846622,-56.623991505158344 L-1.6250190048043975,-56.657198747211694 L-1.4929809460605277,-56.68702788590113 L-1.3600647387229037,-56.71346137618277 L-1.2263485620749717,-56.7364836702813 L-1.0919110659299096,-56.75608122683489 L-0.9568313243700075,-56.77224251886003 L-0.8211887892365033,-56.78495804053157 L-0.685063243397217,-56.79422031277382 L-0.5485347538194945,-56.80002388765968 L-0.4116836244760309,-56.80236535161504 L-0.27459034911130864,-56.80124332742655 L-0.13733556389639867,-56.7966584750517 L-7.997579809877778e-15,-56.788613491230656 " />
			<path d="M1.6517521236405301,-57.7481016233304 L-6.661338147750939e-16,-56.788613491230656 " />
			<path d="M1.651752123640532,-57.7481016233304 L1.7659112517633726,-57.73878443186938 L1.8800239860906143,-57.72708357963184 L1.9940439516809032,-57.71300382179555 L2.1079248112937155,-57.69655088031563 L2.2216202842206183,-57.67773144159916 L2.3350841650935585,-57.65655315378789 L2.448270342662534,-57.63302462365004 L2.5611328185350075,-57.607155413082545 L2.6736257258694707,-57.578956035225154 L2.7857033480155344,-57.54843795018793 L2.897320137092983,-57.515613560393895 L3.008430732502248,-57.480496205538756 L3.1189899793587648,-57.44310015716968 L3.228952946843733,-57.40344061288545 L3.3382749464638093,-57.36153369016015 L3.4469115502123318,-57.31739641979316 L3.5548186086246734,-57.27104673898786 L3.661952268720402,-57.22250348406206 L3.7682689918249492,-57.17178638279297 L3.8737255712635488,-57.11891604639994 L3.9782791499202483,-57.06391396116811 L4.08188723765486,-57.00680247971653 L4.184507728570783,-56.94760481191407 L4.286098918126666,-56.88634501544712 L4.38661952008495,-56.823047986042546 L4.4860286832904315,-56.75773944735027 L4.5842860082720005,-56.690445940489184 L4.6813515636608205,-56.62119481326104 L4.777185902418266,-56.55001420903636 L4.871750077867039,-56.47693305531711 L4.965005659518935,-56.40198105198068 L5.056914748692833,-56.325188659209964 L5.147439993916564,-56.246587085114484 L5.236544606106396,-56.16620827304756 L5.32419237351796,-56.08408488862461 L5.410347676462554,-56.00025030644804 L5.494975501782842,-55.91473859654389 L5.578041457082048,-55.827584510515976 L5.659511784700886,-55.73882346742293 L5.7393533754365365,-55.64849153938406 L5.817533781998082,-55.55662543691981 L5.894021232192957,-55.46326249403271 L5.968784641839032,-55.36844065303506 L6.041793627397098,-55.27219844912926 L6.1130185183186105,-55.174574994747324 L6.182430369103674,-55.075609963655694 L6.250000971064378,-54.97534357483204 L6.315702863788684,-54.87381657612041 L6.3795093463002335,-54.77107022767146 L6.4413944879095,-54.667146285174525 L6.501333138751928,-54.562086982888275 L6.559300940008722,-54.45593501647687 L6.615274333806174,-54.348733525658645 L6.669230572789487,-54.24052607667429 L6.721147729367201,-54.13135664458172 L6.77100470462248,-54.021269595384794 L6.818781236887624,-53.91030966800314 L6.864457909978321,-53.798521956090454 L6.908016161084309,-53.68595188970865 L6.9494382883132255,-53.57264521686522 L6.9887074578845745,-53.45864798492149 L7.025807710970919,-53.34400652187912 L7.060723970183469,-53.22876741755262 L7.093442045699481,-53.112977504635424 L7.1239486410289325,-52.99668383966731 L7.152231358418164,-52.879933683910785 L7.178278703888283,-52.762774484144316 L7.202080091906254,-52.64525385338016 L7.223625849686828,-52.52741955151463 L7.242907221123517,-52.40931946591868 L7.259916370347037,-52.29100159197665 L7.274646384909778,-52.17251401358118 L7.287091278594995,-52.053904883592075 L7.29724599384957,-51.935222404267215 L7.305106403839395,-51.81651480767336 L7.310669314126492,-51.69783033608478 L7.313932463967222,-51.579217222377885 L7.314894527231039,-51.460723670429516 L7.3135551129394285,-51.342397835527116 L7.309914765424797,-51.224287804798614 L7.303974964109257,-51.10644157767002 L7.295738122903395,-50.98890704635866 L7.285207589225276,-50.871731976409976 L7.272387642640052,-50.7549639872858 L7.257283493120781,-50.638650533012 L7.239901278931102,-50.52283888289338 L7.22024806413068,-50.40757610230362 L7.198331835704395,-50.292909033558104 L7.17416150031647,-50.178884276877376 L7.147746880690829,-50.065548171449045 L7.119098711619203,-49.95294677659572 L7.088228635598527,-49.84112585305664 L7.055149198099506,-49.73013084439079 L7.01987384246817,-49.62000685850876 L6.98241690446256,-49.510798649341105 L6.942793606426731,-49.40255059865051 L6.901020051104463,-49.29530669799525 L6.857113215095164,-49.18911053085121 L6.8110909419546575,-49.08400525489971 L6.762971934943628,-48.98003358448842 L6.712775749426701,-48.87723777327244 L6.660522784925223,-48.77565959704256 L6.6062342768269735,-48.67534033674778 L6.5499322877562,-48.57632076171889 L6.4916396986074565,-48.47864111309997 L6.431380199246898,-48.382341087494595 L6.369178278884827,-48.287459820833256 L6.305059216123369,-48.19403587246872 L6.239049068683365,-48.102107209505625 L6.171174662814613,-48.01171119137086 L6.1014635823937935,-47.9228845546308 L6.0299441577145,-47.83566339806174 L5.956645453973922,-47.75008316797952 L5.881597259460877,-47.66617864383424 L5.804830073449957,-47.583983924076094 L5.726375093806765,-47.50353241229785 L5.646264204309228,-47.424856803659814 L5.56452996169016,-47.34798907160261 L5.481205582406344,-47.27296045485334 L5.396324929139496,-47.19980144473028 L5.309922497034623,-47.12854177275133 L5.222033399681323,-47.05921039855127 L5.132693354843788,-46.991835498112664 L5.041938669945229,-46.926444452315245 L4.949806227312718,-46.86306383580849 L4.856333469188339,-46.80171940621174 L4.76155838251283,-46.74243609364644 L4.665519483487862,-46.68523799060464 " />
			<path d="M4.665519483487841,-46.68523799060463 L4.546945685275441,-46.61844937673967 L4.426627930719771,-46.554826159157614 L4.304638694737208,-46.49440666210571 L4.181051459082031,-46.437227280029745 L4.055940668083779,-46.38332245565142 L3.9293816838047553,-46.332724659221284 L3.8014507406447446,-46.285464368959964 L3.672224899420259,-46.24157005269912 L3.5417820009459873,-46.20106815073355 L3.410200619146395,-46.16398305989455 L3.277560013725735,-46.13033711885412 L3.14394008242496,-46.10015059466906 L3.0094213128943146,-46.07344167057278 L2.8740847342105846,-46.050226435022445 L2.738011868068207,-46.03051887200788 L2.6012846796736513,-46.014330852628134 L2.4639855283726515,-46.001672127940765 L2.326197118040006,-45.992550323088196 L2.188002447261857,-45.98697093270458 L2.049484759340449,-45.98493731760605 L1.9107274921514776,-45.9864507027663 L1.7718142278842264,-45.99151017657871 L1.6328286426947918,-46.00011269140543 L1.4938544563026837,-46.0122530654132 L1.354975381561206,-46.02792398569467 L1.2162750740319586,-46.047116012673456 L1.0778370815938614,-46.06981758579012 L0.9397447941170245,-46.09601503046589 L0.8020813932318227,-46.125692566339694 L0.6649298022233874,-46.15883231677361 L0.5283726360817111,-46.195414319621165 L0.3924921517374742,-46.23541653925174 L0.2573701985135497,-46.278814879824 L0.12308816882201978,-46.32558319980034 L-0.010273050863553346,-46.37569332769362 L-0.14263312873112755,-46.4291150790365 L-0.2739123360190592,-46.48581627456356 L-0.40403159504172437,-46.54576275959481 L-0.5329125268229593,-46.60891842460919 L-0.6604774983086277,-46.67524522699566 L-0.7866496691298692,-46.74470321396858 L-0.9113530378888604,-46.81725054663378 L-1.0345124879392238,-46.8928435251908 L-1.156053832633473,-46.97143661525595 L-1.2759038600102894,-47.05298247529057 L-1.3939903768946642,-47.13743198511776 L-1.5102422523843642,-47.22473427551058 L-1.6245894606965303,-47.314836758833735 L-1.7369631233485967,-47.40768516072042 L-1.8472955506481006,-47.50322355276517 L-1.9555202824664326,-47.60139438621302 L-2.061572128271929,-47.70213852662475 L-2.1653872063982114,-47.80539528949724 L-2.26690298252411,-47.911102476817554 L-2.366058307342011,-48.0191964145287 L-2.4627934533918934,-48.12961199088449 L-2.5570501510389407,-48.24228269567043 L-2.6487716235729772,-48.35714066026699 L-2.7379026214086304,-48.47411669853111 L-2.824389455365629,-48.593140348471366 L-2.9081800290091486,-48.71413991469159 L-2.9892238700307567,-48.837042511577586 L-3.0674721606510476,-48.96177410720059 L-3.1428777670256425,-49.08825956791143 L-3.215395267636861,-49.216422703598155 L-3.284980980653936,-49.34618631358017 L-3.351592990245325,-49.47747223311099 L-3.4151911718272325,-49.61020138046179 L-3.4757372162331643,-49.74429380455725 L-3.5331946527899323,-49.87966873313516 L-3.587528871286227,-50.01624462140053 L-3.638707142820512,-50.15393920114516 L-3.6866986395156944,-50.29266953030295 L-3.7314744530886825,-50.432352042911084 L-3.7730076122636556,-50.572902599447026 L-3.8112730990185524,-50.71423653751104 L-3.8462478636549893,-50.85626872282365 L-3.8779108386825394,-50.998913600507365 L-3.906242951509004,-51.14208524662168 L-3.931227135929019,-51.28569741992053 L-3.9528483424041108,-51.42966361380072 L-3.9710935471279667,-51.57389710841029 L-3.9859517598714946,-51.71831102288533 L-3.99741403060292,-51.86281836768375 L-4.005473454878958,-52.00733209698451 L-4.010125178003785,-52.151765161120814 L-4.0113663979533305,-52.296030559015506 L-4.009196367063108,-52.44004139058733 L-4.003616392478585,-52.58371090909627 L-3.9946298353678005,-52.72695257339651 L-3.98224210889673,-52.86968010006564 L-3.9664606749685927,-53.01180751537851 L-3.94729503972908,-53.153249207094625 L-3.9247567478402123,-53.293919976027745 L-3.8988593755262615,-53.433735087366685 L-3.869618522395945,-53.57261032171639 L-3.8370518020458038,-53.71046202582857 L-3.801178831450426,-53.84720716299128 L-3.7620212191459226,-53.98276336304712 L-3.7196025522137504,-54.11704897200995 L-3.673948382072731,-54.24998310125018 L-3.6250862090878373,-54.3814856762191 L-3.573045466005003,-54.51147748468274 L-3.5178575002219317,-54.639880224436396 L-3.4595555549056005,-54.766616550470914 L-3.3981747489678176,-54.89161012156248 L-3.333752055910904,-55.01478564625767 L-3.2663262815562355,-55.136068928226244 L-3.1959380406690743,-55.255386910954215 L-3.1226297324937446,-55.372667721750375 L-3.0464455152139145,-55.48784071503972 L-2.967431279353364,-55.60083651491767 L-2.885634620133242,-55.71158705693957 L-2.8011048088024895,-55.820025629120146 L-2.713892762958678,-55.926086912118286 L-2.624051015877157,-56.029707018583004 L-2.531633684866968,-56.13082353163677 L-2.4366964386726035,-56.22937554247311 L-2.3392964639412375,-56.325303687045796 L-2.239492430775634,-56.41855018182751 L-2.137344457393456,-56.50905885861652 L-2.0329140739143075,-56.59677519837026 L-1.9262641852962978,-56.681646364045584 L-1.8174590334444323,-56.763621232425834 L-1.7065641585137,-56.84265042491553 L-1.5936463594301309,-56.918686337284214 L-1.478773653653627,-56.99168316834143 L-1.362015236206821,-57.061596947525665 " />
			<path d="M-1.362015236206777,-57.06159694752569 L-1.1920356099089429,-57.15606931636547 L-1.0185582124961512,-57.24404418652633 L-0.8417964158113878,-57.325413351634054 L-0.6619676314073433,-57.400076730127694 L-0.4792930431369118,-57.467942488356826 L-0.2939973351038896,-57.528927153534056 L-0.10630841530845192,-57.58295571640403 L0.08354286467264127,-57.62996172350246 L0.2753229936263615,-57.66988735889184 L0.46879608791499483,-57.70268351527329 L0.6637241816057327,-57.72830985438699 L0.8598675191614222,-57.746734856627 L1.0569848503324748,-57.7579358598094 L1.2548337268872276,-57.76189908704609 L1.4531708008157784,-57.75861966368993 L1.651752123640523,-57.7481016233304 " />
			<path d="M1.6517521236405328,-60.29379809017867 L1.8153802072832705,-60.28044344908454 L1.9789417931523177,-60.26367222754407 L2.1423704104983985,-60.24349124131206 L2.305599642610095,-60.2199086918575 L2.4685631538053237,-60.19293416303056 L2.6311947163898717,-60.16257861716774 L2.7934282375720674,-60.12885439063682 L2.955197786322614,-60.091775188823405 L3.1164376201686794,-60.05135608056115 L3.2770822119113685,-60.0076134920078 L3.4370662762557123,-59.96056519996968 L3.5963247963423255,-59.910230324677315 L3.754793050169999,-59.856629322014975 L3.912406636898453,-59.799783975207575 L4.069101503020563,-59.739717385967985 L4.224813968393446,-59.67645396510863 L4.379480752117803,-59.610019422621036 L4.533038998255013,-59.54044075722739 L4.685426301371531,-59.46774624540836 L4.836580731900191,-59.39196542991167 L4.986440861308125,-59.31312910774606 L5.134945787061068,-59.23126931766545 L5.282035157373893,-59.1464193271486 L5.427649195737325,-59.05861361887929 L5.571728725210865,-58.967887876732746 L5.714215192472055,-58.87427897127381 L5.855050691612305,-58.77782494477293 L5.994177987669613,-58.67856499574592 L6.131540539888618,-58.576539463023884 L6.267082524698526,-58.47178980935962 L6.400748858399576,-58.364358604577404 L6.53248521954883,-58.254289508272706 L6.662238071036177,-58.1416272520692 L6.789954681841604,-58.02641762143993 L6.915583148464846,-57.90870743710037 L7.039072416018764,-57.78854453598061 L7.160372298977843,-57.66597775178467 L7.27943350157337,-57.54105689514466 L7.39620763782704,-57.413832733377966 L7.510647251214805,-57.28435696985559 L7.622705833953021,-57.15268222299015 L7.732337845899008,-57.01886200485199 L7.839498733058383,-56.88295069942202 L7.94414494569161,-56.74500354049037 L8.046233956012443,-56.60507658920959 L8.145724275471036,-56.46322671131159 L8.24257547161471,-56.31951155399769 L8.33674818451955,-56.17398952251102 L8.428204142786102,-56.02671975640086 L8.51690617909272,-55.877762105488586 L8.602818245300199,-55.72717710554495 L8.685905427101604,-55.57502595368861 L8.766133958211286,-55.42137048351582 L8.843471234087366,-55.26627313997158 L8.917885825182088,-55.109796953972236 L8.989347489714657,-54.95200551678997 L9.057827185961363,-54.79296295420959 L9.123297084058029,-54.63273390046808 L9.185730577309947,-54.471383471987494 L9.245102293004724,-54.308977240911915 L9.301388102723658,-54.145581208459234 L9.35456513214742,-53.98126177809851 L9.404611770352076,-53.81608572856385 L9.451507678591692,-53.650120186715874 L9.495233798563905,-53.48343260026157 L9.53577236015514,-53.316090710343886 L9.573106888662307,-53.14816252401195 L9.607222211488066,-52.979716286583326 L9.638104464306888,-52.81082045390941 L9.665741096699476,-52.6415436645552 L9.69012087725319,-52.471954711904964 L9.711233898126451,-52.30212251620478 L9.729071579075262,-52.13211609655373 L9.743626670940154,-51.96200454285478 L9.754893258592235,-51.79185698773691 L9.762866763337074,-51.62174257845995 L9.767543944775454,-51.4517304488134 L9.76892290212026,-51.28188969102074 L9.767003074968951,-51.11228932766063 L9.76178524353131,-50.94299828361645 L9.753271528312368,-50.77408535806546 L9.741465389250637,-50.60561919651918 L9.726371624311998,-50.43766826292607 L9.707996367539844,-50.270300811848074 L9.68634708656222,-50.10358486072229 L9.661432579557015,-49.937588162218944 L9.633262971676412,-49.77237817670696 L9.60184971093207,-49.60802204483838 L9.567205563542709,-49.44458656026267 L9.529344608745959,-49.28213814248207 L9.488282233076625,-49.12074280985895 L9.444035124113658,-48.96046615278628 L9.396621263698394,-48.801373307031895 L9.346059920626814,-48.64352892726766 L9.29237164281877,-48.48699716079401 L9.235578248967418,-48.33184162147082 L9.175702819672166,-48.17812536386496 L9.112769688058837,-48.02591085762516 L9.046804429890777,-47.87525996209468 L8.977833853174968,-47.72623390117183 L8.905885987267373,-47.578893238428925 L8.83099007148192,-47.433297852499436 L8.753176543207765,-47.28950691274358 L8.672477025539656,-47.14757885520217 L8.588924314426457,-47.00757135884839 L8.50255236534299,-46.86954132214734 L8.413396279490687,-46.73354483993276 L8.321492289532598,-46.59963718061025 L8.226877744868592,-46.46787276369649 L8.129591096456712,-46.33830513770332 L8.029671881186873,-46.210986958375905 L7.927160705813219,-46.08596996729359 L7.822099230451726,-45.9633049708424 L7.714530151649693,-45.84304181956751 L7.604497185034041,-45.72522938791416 L7.492045047545466,-45.60991555436535 L7.377219439265664,-45.49714718198416 L7.260067024844998,-45.38697009936884 L7.140635414538195,-45.279429082028216 L7.018973144855714,-45.17456783418517 L6.895129658838727,-45.07242897101534 L6.769155285965668,-44.97305400132859 L6.6411012216985315,-44.87648331069991 L6.511019506677265,-44.78275614505695 L6.378963005570664,-44.6919105947306 L6.24498538559239,-44.60398357897526 L6.109141094690827,-44.519010830964994 L5.9714853394217045,-44.43702688327175 " />
			<path d="M5.971485339421674,-44.437026883271734 L5.801529561983902,-44.34129653673196 L5.629074113787442,-44.250103258197676 L5.454222875545766,-44.16350197908995 L5.277081171106681,-44.081544864781065 L5.097755704009186,-44.00428128317212 L4.916354493209252,-43.931757774955614 L4.732986808013236,-43.864018025581046 L4.54776310225814,-43.801102838940494 L4.360794947778351,-43.74305011278985 L4.172194967198935,-43.68989481592061 L3.9820767660959895,-43.641668967096 L3.7905548645648794,-43.598401615764075 L3.5977446282376206,-43.56011882455941 L3.4037621987909406,-43.52684365360393 L3.208724423986866,-43.49859614661639 L3.012748787288003,-43.475393318838755 L2.815953337089902,-43.457249146786864 L2.618456615613111,-43.44417455983152 L2.4203775874977635,-43.436177433614986 L2.221835568143746,-43.4332625853071 L2.022950151839553,-43.43543177070346 L1.8238411397231615,-43.44268368316791 L1.6246284676183043,-43.45501395441954 L1.4254321337896159,-43.47241515716401 L1.226372126660164,-43.494876809567465 L1.0275683525349104,-43.52238538157038 L0.8291405633736375,-43.5549243030376 L0.631208284656837,-43.592473973739544 L0.433890743388049,-43.63501177515865 L0.23730679627595763,-43.68251208411394 L0.04157485813955497,-43.73494628819544 L-0.1531871694205178,-43.79228280299925 L-0.34686196904147626,-43.85448709115282 L-0.5393328782660018,-43.921521683118925 L-0.7304839598153239,-43.993346199765945 L-0.9202000714255141,-44.069917376690746 L-1.1083669352048824,-44.15118909027954 L-1.2948712064707018,-44.23711238549098 L-1.4796005420238056,-44.32763550534494 L-1.6624436678199308,-44.422703922098876 L-1.8432904459970436,-44.522260370093385 L-2.0220319412182652,-44.626244880246844 L-2.19856048629045,-44.73459481617857 L-2.372769747018874,-44.847244911938624 L-2.5445547862589786,-44.964127311321576 L-2.713812127126583,-45.08517160874055 L-2.8804398153284856,-45.21030489163693 L-3.0443374805759245,-45.33945178440012 L-3.2054063970438857,-45.472534493771036 L-3.3635495428398414,-45.60947285570184 L-3.5186716584461157,-45.75018438364376 L-3.6706793041006627,-45.89458431823391 L-3.819480916081665,-46.042585678351145 L-3.964986861862122,-46.19409931351026 L-4.107109494101113,-46.3490339575629 L-4.245763203439278,-46.507296283672865 L-4.3808644700667125,-46.66879096053272 L-4.512331914032166,-46.83342070978779 L-4.640086344263268,-47.00108636463303 L-4.7640508062682985,-47.171686929547384 L-4.8841506284906755,-47.34511964112971 L-5.000313467288315,-47.52128002999964 L-5.112469350510732,-47.700061983725945 L-5.220550719647653,-47.88135781074481 L-5.324492470523731,-48.06505830522912 L-5.424231992514872,-48.251052812870014 L-5.519709206262529,-48.43922929753085 L-5.610866599863264,-48.62947440873366 L-5.697649263511766,-48.82167354993716 L-5.780004922576467,-49.015710947565495 L-5.8578839690878235,-49.21146972074585 L-5.931239491620297,-49.40883195171316 L-6.000027303550057,-49.60767875683933 L-6.064205969671343,-49.80789035824432 L-6.123736831155471,-50.009346155945835 L-6.178584028837489,-50.21192480050425 L-6.2287145248163815,-50.415504266119 L-6.274098122355871,-50.61996192413232 L-6.314707484073802,-50.82517461689618 L-6.350518148409157,-51.031018731957865 L-6.38150854435679,-51.237370276519464 L-6.4076600044609835,-51.444104952126516 L-6.42895677606004,-51.65109822954074 L-6.445386030775082,-51.858225423751804 L-6.456937872237403,-52.065361769082905 L-6.463605342049656,-52.272382494344924 L-6.465384423977338,-52.47916289799399 L-6.46227404636802,-52.68557842324694 L-6.454276082796869,-52.89150473310975 L-6.441395350938078,-53.09681778527342 L-6.423639609662877,-53.30139390683251 L-6.40101955436588,-53.505109868780956 L-6.373548810522579,-53.707842960240725 L-6.341243925481868,-53.9094710623782 L-6.304124358498539,-54.10987272196402 L-6.262212469011753,-54.30892722453192 L-6.21553350317655,-54.506514667092716 L-6.1641155786565065,-54.70251603035927 L-6.107989667686719,-54.8968132504393 L-6.047189578417273,-55.08928928995268 L-5.981751934548478,-55.279828208530354 L-5.911716153270131,-55.46831523265247 L-5.837124421518069,-55.654636824783694 L-5.758021670562333,-55.83868075176393 L-5.674455548942258,-56.02033615241341 L-5.586476393764769,-56.19949360431132 L-5.494137200383192,-56.37604518970776 L-5.397493590474835,-56.549884560529385 L-5.296603778536571,-56.720907002439475 L-5.191528536818597,-56.88900949791397 L-5.0823311587175075,-57.054090788295355 L-4.969077420650718,-57.21605143478708 L-4.851835542435211,-57.37479387835182 L-4.730676146194465,-57.53022249847731 L-4.605672213818337,-57.68224367077464 L-4.476899043001489,-57.83076582337407 L-4.344434201886883,-57.975699492084466 L-4.208357482341628,-58.11695737428322 L-4.068750851893338,-58.25445438150407 L-3.9256984043559724,-58.38810769069119 L-3.779286309174851,-58.51783679408877 L-3.629602759521404,-58.6435635477358 L-3.476737919168924,-58.7652122185371 L-3.32078386818125,-58.88270952988213 L-3.1618345474471985,-58.995984705784025 L-2.999985702094084,-59.10496951351247 L-2.8353348238144287,-59.20959830469449 L-2.667981092140673,-59.30980805485855 " />
			<path d="M-2.66798109214061,-59.309808054858586 L-2.546807921994702,-59.378667244433736 L-2.424343627780382,-59.445218450195604 L-2.3006258692181403,-59.50944120658871 L-2.175692691488714,-59.57131576409284 L-2.0495825135335863,-59.63082309529631 L-1.9223341162405532,-59.68794490074724 L-1.7939866305179784,-59.74266361458089 L-1.664579525261421,-59.79496240992146 L-1.5341525952163197,-59.844825204056626 L-1.4027459487404712,-59.89223666338321 L-1.2703999954700784,-59.937182208122536 L-1.1371554338931384,-59.979648016803914 L-1.0030532388340119,-60.01962103051498 L-0.8681346488530111,-60.05708895691754 L-0.7324411535648869,-60.0920402740276 L-0.5960144808801113,-60.12446423375862 L-0.45889658417287804,-60.15435086522669 L-0.32112962937977785,-60.18169097781674 L-0.18275598203309573,-60.20647616400881 L-0.043818194232736696,-60.22869880196349 L0.09564100843921941,-60.248352057865745 L0.23557874005732038,-60.26542988802646 L0.37595196754084026,-60.27992704074091 L0.5167175238871418,-60.2918390579038 L0.6578321214462146,-60.301162276380175 L0.799252365232318,-60.3078938291319 L0.9409347662686296,-60.31203164609932 L1.082835754960796,-60.31357445483783 L1.2249116944952838,-60.312521780909165 L1.3671188942583854,-60.308873948027326 L1.5094136232717859,-60.30263207795902 L1.6517521236405204,-60.29379809017867 " />
			<path d="M4.980434065237356,-43.86133400401189 L4.810478287799583,-43.76560365747211 L4.638022839603123,-43.67441037893783 L4.463171601361448,-43.5878090998301 L4.286029896922362,-43.50585198552122 L4.106704429824868,-43.42858840391227 L3.9253032190249337,-43.356064895695766 L3.7419355338289177,-43.2883251463212 L3.5567118280738215,-43.22540995968065 L3.3697436735940323,-43.167357233530005 L3.181143693014617,-43.11420193666076 L2.9910254919116706,-43.065976087836155 L2.7995035903805605,-43.02270873650423 L2.606693354053302,-42.98442594529956 L2.4127109246066216,-42.951150774344086 L2.2176731498025473,-42.922903267356546 L2.0216975131036845,-42.89970043957891 L1.8249020629055837,-42.88155626752702 L1.627405341428792,-42.86848168057167 L1.429326313313445,-42.86048455435514 L1.2307842939594273,-42.85756970604725 L1.0318988776552347,-42.85973889144361 L0.8327898655388428,-42.86699080390806 L0.6335771934339856,-42.879321075159694 L0.43438085960529715,-42.89672227790416 L0.23532085247584522,-42.91918393030762 L0.0365170783505917,-42.94669250231053 L-0.1619107108106812,-42.979231423777755 L-0.3598429895274817,-43.0167810944797 L-0.5571605307962697,-43.059318895898805 L-0.7537444779083611,-43.10681920485409 L-0.9494764160447637,-43.15925340893559 L-1.1442384436048365,-43.216589923739406 L-1.337913243225795,-43.27879421189297 L-1.5303841524503206,-43.34582880385908 L-1.7215352339996426,-43.4176533205061 L-1.9112513456098328,-43.4942244974309 L-2.099418209389201,-43.57549621101969 L-2.2859224806550205,-43.661419506231134 L-2.4706518162081244,-43.75194262608509 L-2.6534949420042495,-43.84701104283903 L-2.8343417201813623,-43.94656749083354 L-3.013083215402584,-44.050552000987 L-3.189611760474769,-44.158901936918724 L-3.363821021203193,-44.27155203267878 L-3.5356060604432975,-44.38843443206173 L-3.704863401310902,-44.509478729480705 L-3.8714910895128045,-44.63461201237708 L-4.035388754760243,-44.76375890514027 L-4.196457671228204,-44.89684161451119 L-4.35460081702416,-45.03377997644199 L-4.509722932630435,-45.174491504383916 L-4.661730578284981,-45.31889143897406 L-4.8105321902659846,-45.4668927990913 L-4.956038136046441,-45.61840643425041 L-5.098160768285432,-45.773341078303055 L-5.2368144776235965,-45.93160340441302 L-5.371915744251032,-46.09309808127287 L-5.503383188216485,-46.25772783052794 L-5.631137618447587,-46.425393485373185 L-5.755102080452618,-46.59599405028754 L-5.875201902674995,-46.769426761869866 L-5.991364741472633,-46.94558715073979 L-6.103520624695051,-47.1243691044661 L-6.211601993831971,-47.30566493148496 L-6.31554374470805,-47.489365425969275 L-6.415283266699191,-47.67535993361017 L-6.510760480446848,-47.863536418271 L-6.601917874047583,-48.05378152947381 L-6.688700537696086,-48.24598067067731 L-6.771056196760785,-48.44001806830565 L-6.848935243272143,-48.635776841486006 L-6.922290765804616,-48.833139072453314 L-6.991078577734376,-49.03198587757948 L-7.055257243855662,-49.232197478984475 L-7.114788105339789,-49.43365327668599 L-7.169635303021808,-49.6362319212444 L-7.219765799000701,-49.839811386859154 L-7.26514939654019,-50.04426904487247 L-7.30575875825812,-50.24948173763633 L-7.3415694225934764,-50.45532585269802 L-7.372559818541109,-50.661677397259616 L-7.398711278645303,-50.86841207286667 L-7.420008050244359,-51.075405350280896 L-7.4364373049594015,-51.28253254449196 L-7.4479891464217225,-51.48966888982306 L-7.454656616233976,-51.69668961508508 L-7.456435698161657,-51.90347001873414 L-7.45332532055234,-52.10988554398709 L-7.445327356981188,-52.3158118538499 L-7.432446625122397,-52.521124906013576 L-7.4146908838471965,-52.72570102757266 L-7.3920708285501995,-52.92941698952111 L-7.364600084706899,-53.13215008098088 L-7.332295199666188,-53.333778183118355 L-7.295175632682858,-53.53417984270417 L-7.253263743196072,-53.73323434527207 L-7.206584777360868,-53.93082178783287 L-7.155166852840825,-54.12682315109942 L-7.0990409418710385,-54.321120371179454 L-7.038240852601591,-54.513596410692834 L-6.972803208732797,-54.70413532927051 L-6.9027674274544495,-54.892622353392625 L-6.828175695702388,-55.07894394552385 L-6.749072944746652,-55.262987872504084 L-6.665506823126577,-55.44464327315356 L-6.577527667949088,-55.623800725051474 L-6.4851884745675115,-55.80035231044791 L-6.3885448646591545,-55.97419168126954 L-6.28765505272089,-56.14521412317963 L-6.182579811002915,-56.31331661865412 L-6.073382432901827,-56.47839790903551 L-5.960128694835037,-56.640358555527236 L-5.842886816619529,-56.79910099909197 L-5.721727420378784,-56.95452961921746 L-5.596723488002656,-57.10655079151479 L-5.467950317185808,-57.255072944114225 L-5.335485476071202,-57.40000661282462 L-5.199408756525948,-57.54126449502337 L-5.059802126077656,-57.67876150224422 L-4.916749678540292,-57.812414811431346 L-4.77033758335917,-57.942143914828925 L-4.620654033705723,-58.067870668475955 L-4.4677891933532425,-58.189519339277254 L-4.3118351423655685,-58.30701665062228 L-4.152885821631518,-58.42029182652418 L-3.991036976278403,-58.529276634252625 L-3.8263860979987476,-58.63390542543464 L-3.659032366324992,-58.7341151755987 " />
			<path d="M-5.525240159720065,-60.42559171414305 L-4.864539310263853,-60.80938696698295 " />
			<path d="M5.525240159720066,-41.402266959787774 L6.185941009176278,-41.78606221262767 " />
			<path d="M-3.6590323663249293,-58.734115175598745 L-2.667981092140611,-59.309808054858586 " />
			<path d="M4.980434065237355,-43.861334004011894 L5.971485339421673,-44.437026883271734 " />

       </g>
    </g>
    
</svg>
